<?xml version="1.0" encoding="UTF-8" standalone="no"?>
<svg
   shape-rendering="geometricPrecision"
   text-rendering="geometricPrecision"
   image-rendering="optimizeQuality"
   fill-rule="evenodd"
   clip-rule="evenodd"
   viewBox="0 0 512 512"
   version="1.1"
   id="svg3231"
   sodipodi:docname="accept-icon.svg"
   inkscape:export-filename="accept-icon-transparent.svg"
   inkscape:export-xdpi="96"
   inkscape:export-ydpi="96"
   inkscape:version="1.2.1 (9c6d41e410, 2022-07-14)"
   xmlns:inkscape="http://www.inkscape.org/namespaces/inkscape"
   xmlns:sodipodi="http://sodipodi.sourceforge.net/DTD/sodipodi-0.dtd"
   xmlns="http://www.w3.org/2000/svg"
   xmlns:svg="http://www.w3.org/2000/svg">
  <defs
     id="defs3235">
    <inkscape:path-effect
       effect="powerclip"
       id="path-effect3808"
       is_visible="true"
       lpeversion="1"
       inverse="true"
       flatten="false"
       hide_clip="false"
       message="Füllregel Gerade-Ungerade im &lt;b&gt;Füllung und Kontur&lt;/b&gt;-Dialog verwenden, wenn das Anwenden des Ausschnitts mit nachfolgendem Umwandeln in Pfade kein Ergebnis bringt" />
    <filter
       id="mask-powermask-path-effect3794_inverse"
       inkscape:label="filtermask-powermask-path-effect3794"
       style="color-interpolation-filters:sRGB"
       height="100"
       width="100"
       x="-50"
       y="-50">
      <feColorMatrix
         id="mask-powermask-path-effect3794_primitive1"
         values="1"
         type="saturate"
         result="fbSourceGraphic" />
      <feColorMatrix
         id="mask-powermask-path-effect3794_primitive2"
         values="-1 0 0 0 1 0 -1 0 0 1 0 0 -1 0 1 0 0 0 1 0 "
         in="fbSourceGraphic" />
    </filter>
    <clipPath
       clipPathUnits="userSpaceOnUse"
       id="clipPath3804">
      <path
         fill="#ffffff"
         fill-rule="nonzero"
         d="m 158.04,235.26 c 19.67,11.33 32.46,20.75 47.71,37.55 39.53,-63.63 82.44,-98.89 138.24,-148.93 l 5.45,-2.11 H 410.5 C 328.63,212.7 265.16,287.67 208.32,397.3 178.73,334.04 152.36,290.37 93.36,249.87 Z"
         id="path3806"
         style="display:none" />
      <path
         id="lpe_path-effect3808"
         style="display:inline"
         class="powerclip"
         d="M -5,-5 H 517 V 517 H -5 Z m 163.04,240.26 -64.68,14.61 c 59,40.5 85.37,84.17 114.96,147.43 C 265.16,287.67 328.63,212.7 410.5,121.77 h -61.06 l -5.45,2.11 c -55.8,50.04 -98.71,85.3 -138.24,148.93 -15.25,-16.8 -28.04,-26.22 -47.71,-37.55 z" />
    </clipPath>
  </defs>
  <sodipodi:namedview
     id="namedview3233"
     pagecolor="#ffffff"
     bordercolor="#000000"
     borderopacity="0.25"
     inkscape:showpageshadow="2"
     inkscape:pageopacity="0.0"
     inkscape:pagecheckerboard="0"
     inkscape:deskcolor="#d1d1d1"
     showgrid="false"
     inkscape:zoom="1.6503906"
     inkscape:cx="118.15385"
     inkscape:cy="256.30296"
     inkscape:window-width="1920"
     inkscape:window-height="1011"
     inkscape:window-x="0"
     inkscape:window-y="32"
     inkscape:window-maximized="1"
     inkscape:current-layer="svg3231" />
  <path
     fill="#3aaf3c"
     d="M 256,0 C 397.39,0 512,114.61 512,256 512,397.39 397.39,512 256,512 114.61,512 0,397.39 0,256 0,114.61 114.61,0 256,0 Z"
     id="path3225"
     clip-path="url(#clipPath3804)"
     inkscape:path-effect="#path-effect3808"
     inkscape:original-d="M 256,0 C 397.39,0 512,114.61 512,256 512,397.39 397.39,512 256,512 114.61,512 0,397.39 0,256 0,114.61 114.61,0 256,0 Z"
     style="display:inline;fill:rgb(31, 109, 31)" />
  <path
     fill="#0da10d"
     fill-rule="nonzero"
     d="M 391.27,143.23 H 410.5 C 328.63,234.15 265.16,309.12 208.32,418.75 178.73,355.49 152.36,311.82 93.36,271.33 l 22.03,-4.98 c 44.09,36.07 67.31,76.16 92.93,130.95 52.31,-100.9 110.24,-172.44 182.95,-254.07 z"
     id="path3227"
     style="display:inline;fill:#005300;fill-opacity:1" />
</svg>
