<?xml version="1.0" encoding="UTF-8"?>
<svg enable-background="new 0 0 122.88 94.06" version="1.1" viewBox="0 0 122.88 94.06" xml:space="preserve" xmlns="http://www.w3.org/2000/svg"><style type="text/css">
]]></style><path class="st0" d="m3.12 0h101.16c1.72 0 3.13 1.4 3.13 3.12v7.99h-6.63v-2.47c0-1.52-1.23-2.76-2.76-2.76h-88.62c-1.52 0-2.77 1.24-2.76 2.76v52.55c0 1.51 1.24 2.76 2.76 2.76h67.91v13.05h-74.19c-1.72 0-3.12-1.41-3.12-3.13v-70.75c0-1.72 1.4-3.12 3.12-3.12zm87.4 21.33h28.46c2.15 0 3.91 1.76 3.91 3.91v57.14c0 2.15-1.76 3.91-3.91 3.91h-28.46c-2.15 0-3.91-1.76-3.91-3.91v-57.15c0-2.14 1.76-3.9 3.91-3.9zm23.83 16.17h2.83v1.62h-2.83v-1.62zm-9.61 32.61c2.34 0 4.25 1.9 4.25 4.25s-1.9 4.25-4.25 4.25c-2.34 0-4.25-1.9-4.25-4.25 0.01-2.34 1.91-4.25 4.25-4.25zm-12.84-36.31h25.69c0.45 0 0.81 0.37 0.81 0.81v4.42c0 0.45-0.37 0.81-0.81 0.81h-25.69c-0.45 0-0.81-0.37-0.81-0.81v-4.42c0-0.44 0.36-0.81 0.81-0.81zm-24.02 47.51c0.07 4.9 2.1 9.3 7.57 12.75h-42.23c4.38-3.17 6.33-7.02 6.31-12.75h28.35zm-14.17-14.84c2.22 0 4.01 1.8 4.01 4.01s-1.8 4.01-4.01 4.01-4.01-1.79-4.01-4.01 1.79-4.01 4.01-4.01z"/></svg>
